<svg width="128" height="36" viewBox="0 0 128 36" fill="none" xmlns="http://www.w3.org/2000/svg">
  <path d="M5.87455 35.44H0.195818C0.0652728 35.44 0 35.3584 0 35.1952L0.0979092 0.755633C0.0979092 0.625087 0.163182 0.559814 0.293728 0.559814H31.3146C33.126 0.559814 34.7904 1.00041 36.308 1.88159C37.8256 2.76277 39.0331 3.94584 39.9306 5.4308C40.8445 6.91575 41.3014 8.59653 41.3014 10.4731C41.3014 11.697 41.1137 12.8066 40.7384 13.802C40.3631 14.7974 39.9225 15.6378 39.4166 16.3232C38.9271 17.0086 38.4783 17.5144 38.0704 17.8408C39.8817 19.8479 40.7874 22.2059 40.7874 24.9147L40.8363 35.1952C40.8363 35.3584 40.7547 35.44 40.5915 35.44H34.9128C34.7823 35.44 34.717 35.391 34.717 35.2931V24.9147C34.717 23.7072 34.2927 22.6628 33.4442 21.7816C32.5956 20.9005 31.5513 20.4599 30.3111 20.4599H6.11933L6.07037 35.1952C6.07037 35.3584 6.0051 35.44 5.87455 35.44ZM31.3146 6.55675H6.11933V14.4384H31.3146C32.3427 14.4384 33.2565 14.055 34.0561 13.288C34.872 12.5211 35.28 11.5828 35.28 10.4731C35.28 9.41244 34.8883 8.49862 34.105 7.73167C33.3218 6.94839 32.3916 6.55675 31.3146 6.55675Z" fill="white"/>
  <path d="M43.382 35.1952L49.5992 0.755633C49.6318 0.625087 49.7134 0.559814 49.844 0.559814H57.1137C57.2443 0.559814 57.3259 0.625087 57.3585 0.755633L63.331 35.1952C63.3473 35.3584 63.282 35.44 63.1351 35.44H57.5788C57.4156 35.44 57.3259 35.3584 57.3095 35.1952L56.771 31.5236H49.9419L49.4034 35.1952C49.3871 35.3584 49.3055 35.44 49.1586 35.44H43.5778C43.4472 35.44 43.382 35.3584 43.382 35.1952ZM53.1973 12.0886L50.9454 26.1631H55.7675L53.7114 12.0886L53.4176 10.2284L53.1973 12.0886Z" fill="white"/>
  <path d="M77.1606 35.44H71.5064C71.3595 35.44 71.2861 35.3584 71.2861 35.1952V6.60571H64.7751C64.6119 6.60571 64.5303 6.52412 64.5303 6.36094L64.5793 0.755633C64.5793 0.625087 64.6446 0.559814 64.7751 0.559814H83.8185C83.998 0.559814 84.0877 0.625087 84.0877 0.755633V6.36094C84.0877 6.52412 84.0224 6.60571 83.8919 6.60571H77.3075L77.3565 35.1952C77.3565 35.3584 77.2912 35.44 77.1606 35.44Z" fill="white"/>
  <path d="M102.935 35.44H86.7313C86.6007 35.44 86.5354 35.3584 86.5354 35.1952L86.5844 0.755633C86.5844 0.625087 86.6497 0.559814 86.7802 0.559814H102.886C103.017 0.559814 103.082 0.641405 103.082 0.804588V6.40989C103.082 6.54044 103.017 6.60571 102.886 6.60571H92.6058V14.4384H102.886C103.017 14.4384 103.082 14.5037 103.082 14.6343L103.131 20.313C103.131 20.4435 103.066 20.5088 102.935 20.5088H92.6058V29.2717H102.935C103.066 29.2717 103.131 29.3533 103.131 29.5165V35.2442C103.131 35.3747 103.066 35.44 102.935 35.44Z" fill="white"/>
  <path d="M113.46 35.44H107.782C107.651 35.44 107.586 35.3584 107.586 35.1952L107.684 0.755633C107.684 0.625087 107.749 0.559814 107.88 0.559814H118.013C119.825 0.559814 121.489 1.00041 123.007 1.88159C124.524 2.76277 125.732 3.94584 126.629 5.4308C127.543 6.91575 128 8.59653 128 10.4731C128 11.697 127.812 12.8066 127.437 13.802C127.062 14.7974 126.621 15.6378 126.115 16.3232C125.626 17.0086 125.177 17.5144 124.769 17.8408C126.58 19.8479 127.486 22.2059 127.486 24.9147L127.535 35.1952C127.535 35.3584 127.453 35.44 127.29 35.44H121.611C121.481 35.44 121.416 35.391 121.416 35.2931V24.9147C121.416 23.7072 120.991 22.6628 120.143 21.7816C119.294 20.9005 118.25 20.4599 117.01 20.4599H113.705L113.656 35.1952C113.656 35.3584 113.591 35.44 113.46 35.44ZM118.013 6.55675H113.705V14.4384H118.013C119.041 14.4384 119.955 14.055 120.755 13.288C121.571 12.5211 121.979 11.5828 121.979 10.4731C121.979 9.41244 121.587 8.49862 120.804 7.73167C120.02 6.94839 119.09 6.55675 118.013 6.55675Z" fill="white"/>
</svg>